<svg width="114" height="40" viewBox="0 0 114 40" fill="none" xmlns="http://www.w3.org/2000/svg">
<path d="M53.9972 29.2501C53.4113 29.2501 53.1184 28.9512 53.1184 28.3534V17.2879C53.1184 16.989 53.1901 16.7618 53.3336 16.6064C53.489 16.439 53.6923 16.3553 53.9434 16.3553C54.1586 16.3553 54.326 16.3972 54.4455 16.4808C54.5651 16.5526 54.6966 16.6901 54.8401 16.8933L61.7807 26.0398V17.2341C61.7807 16.6482 62.0676 16.3553 62.6415 16.3553C63.2154 16.3553 63.5024 16.6482 63.5024 17.2341V28.3713C63.5024 28.6463 63.4306 28.8615 63.2871 29.0169C63.1556 29.1724 62.9763 29.2501 62.7491 29.2501C62.522 29.2501 62.3426 29.2082 62.2111 29.1245C62.0796 29.0409 61.9361 28.8974 61.7807 28.6941L54.8401 19.5297V28.3534C54.8401 28.9512 54.5591 29.2501 53.9972 29.2501ZM70.3562 29.286C68.9215 29.286 67.7916 28.8854 66.9666 28.0844C66.1416 27.2713 65.7292 26.1654 65.7292 24.7665C65.7292 23.8698 65.9085 23.0807 66.2672 22.3992C66.6378 21.7057 67.146 21.1677 67.7916 20.7851C68.4372 20.4025 69.1785 20.2112 70.0155 20.2112C71.223 20.2112 72.1736 20.5998 72.867 21.3769C73.5605 22.1421 73.9072 23.2002 73.9072 24.5513C73.9072 24.9578 73.6681 25.1611 73.1898 25.1611H67.4867C67.6182 26.9784 68.5807 27.8871 70.3741 27.8871C70.7328 27.8871 71.1095 27.8452 71.504 27.7615C71.8986 27.6659 72.2812 27.4985 72.6518 27.2594C72.9029 27.1159 73.1181 27.0681 73.2974 27.1159C73.4887 27.1518 73.6262 27.2534 73.7099 27.4208C73.7936 27.5762 73.8056 27.7556 73.7458 27.9588C73.698 28.1501 73.5605 28.3175 73.3333 28.461C72.9268 28.736 72.4486 28.9452 71.8986 29.0887C71.3605 29.2202 70.8464 29.286 70.3562 29.286ZM70.0872 21.4845C69.334 21.4845 68.7361 21.7177 68.2938 22.184C67.8514 22.6503 67.5824 23.272 67.4867 24.0491H72.3828C72.3469 23.2361 72.1317 22.6084 71.7372 22.166C71.3426 21.7117 70.7926 21.4845 70.0872 21.4845ZM78.6797 29.286C78.0699 29.286 77.5259 29.1664 77.0477 28.9273C76.5694 28.6881 76.1868 28.3653 75.8999 27.9588C75.6249 27.5523 75.4874 27.092 75.4874 26.5779C75.4874 25.9322 75.6488 25.4241 75.9716 25.0535C76.3064 24.6828 76.8504 24.4138 77.6036 24.2464C78.3688 24.079 79.3971 23.9953 80.6883 23.9953H81.2981V23.529C81.2981 22.8475 81.1546 22.3573 80.8677 22.0584C80.5807 21.7595 80.1085 21.6101 79.4509 21.6101C79.0683 21.6101 78.6677 21.6579 78.2493 21.7535C77.8428 21.8492 77.4183 22.0106 76.9759 22.2378C76.7249 22.3573 76.5156 22.3753 76.3482 22.2916C76.1928 22.2079 76.0852 22.0764 76.0254 21.897C75.9656 21.7177 75.9716 21.5323 76.0434 21.341C76.1151 21.1497 76.2645 21.0063 76.4917 20.9106C77.0178 20.6715 77.5379 20.4981 78.052 20.3905C78.5661 20.271 79.0503 20.2112 79.5047 20.2112C80.7003 20.2112 81.5851 20.4981 82.159 21.072C82.7329 21.634 83.0198 22.5187 83.0198 23.7263V28.3354C83.0198 28.9452 82.7388 29.2501 82.1769 29.2501C81.603 29.2501 81.316 28.9452 81.316 28.3354V27.6719C81.1008 28.174 80.7661 28.5686 80.3117 28.8555C79.8574 29.1425 79.3134 29.286 78.6797 29.286ZM79.0384 27.9947C79.684 27.9947 80.2221 27.7675 80.6525 27.3132C81.0829 26.8588 81.2981 26.2849 81.2981 25.5915V25.1073H80.7063C79.8335 25.1073 79.146 25.1491 78.6438 25.2328C78.1536 25.3165 77.8009 25.46 77.5857 25.6632C77.3825 25.8545 77.2808 26.1235 77.2808 26.4703C77.2808 26.9246 77.4363 27.2952 77.7471 27.5822C78.058 27.8572 78.4884 27.9947 79.0384 27.9947ZM86.4293 29.2501C85.8195 29.2501 85.5146 28.9452 85.5146 28.3354V21.1617C85.5146 20.5519 85.8076 20.2471 86.3934 20.2471C86.9793 20.2471 87.2722 20.5519 87.2722 21.1617V21.9329C87.5113 21.3949 87.87 20.9824 88.3483 20.6954C88.8385 20.4085 89.4303 20.2411 90.1238 20.1933C90.5661 20.1574 90.8053 20.3965 90.8411 20.9106C90.889 21.4367 90.6319 21.7236 90.07 21.7715L89.7292 21.8073C88.139 21.9628 87.3439 22.7818 87.3439 24.2643V28.3354C87.3439 28.9452 87.0391 29.2501 86.4293 29.2501ZM95.0207 29.286C94.0881 29.286 93.3827 29.0169 92.9044 28.4789C92.4381 27.9409 92.205 27.1518 92.205 26.1116V17.27C92.205 16.6602 92.5039 16.3553 93.1017 16.3553C93.7115 16.3553 94.0163 16.6602 94.0163 17.27V26.004C94.0163 27.1876 94.4946 27.7795 95.4511 27.7795C95.5587 27.7795 95.6543 27.7735 95.738 27.7615C95.8217 27.7496 95.9054 27.7436 95.9891 27.7436C96.1326 27.7316 96.2342 27.7735 96.294 27.8691C96.3538 27.9528 96.3837 28.1322 96.3837 28.4072C96.3837 28.8974 96.1565 29.1783 95.7022 29.2501C95.5826 29.262 95.4631 29.268 95.3435 29.268C95.2359 29.28 95.1283 29.286 95.0207 29.286ZM99.5391 32.4783C99.2044 32.4783 98.9712 32.3527 98.8397 32.1016C98.7201 31.8625 98.7321 31.5815 98.8756 31.2587L99.9337 28.8914L96.7414 21.4845C96.5979 21.1617 96.5919 20.8748 96.7234 20.6237C96.8669 20.3726 97.1419 20.2471 97.5484 20.2471C97.7636 20.2471 97.937 20.3009 98.0685 20.4085C98.212 20.5161 98.3375 20.7014 98.4451 20.9644L100.902 27.0262L103.395 20.9644C103.503 20.6894 103.628 20.5041 103.772 20.4085C103.915 20.3009 104.112 20.2471 104.363 20.2471C104.686 20.2471 104.907 20.3726 105.027 20.6237C105.147 20.8748 105.141 21.1557 105.009 21.4666L100.526 31.7788C100.406 32.0538 100.268 32.2391 100.113 32.3348C99.9696 32.4304 99.7783 32.4783 99.5391 32.4783Z" fill="#02100F"/>
<path d="M45.3223 15.433C45.3281 16.1044 45.3719 16.7027 45.4537 17.2282C45.5354 17.7478 45.6492 18.1885 45.7952 18.5505C45.9411 18.9066 46.1192 19.1781 46.3294 19.3649C46.5395 19.5517 46.7789 19.6451 47.0474 19.6451C47.4152 19.6451 47.7188 19.4991 47.9582 19.2072C48.2034 18.9095 48.3843 18.5038 48.5011 17.99C48.1975 17.9258 47.9085 17.8061 47.6342 17.631C47.3598 17.4558 47.1175 17.2398 46.9073 16.983C46.6972 16.7203 46.5279 16.4196 46.3994 16.081C46.2768 15.7424 46.2155 15.3746 46.2155 14.9776C46.2155 14.6507 46.2564 14.3646 46.3381 14.1194C46.4257 13.8684 46.5395 13.6612 46.6796 13.4977C46.8198 13.3284 46.9803 13.2029 47.1613 13.1211C47.3481 13.0336 47.5437 12.9898 47.748 12.9898C47.9874 12.9898 48.2325 13.0598 48.4836 13.2C48.7346 13.3342 48.9623 13.5386 49.1666 13.8129C49.371 14.0815 49.5373 14.4201 49.6658 14.8288C49.7942 15.2374 49.8584 15.7132 49.8584 16.2561C49.8584 16.4605 49.8468 16.6619 49.8234 16.8604C49.8 17.0589 49.765 17.2515 49.7183 17.4383C49.9985 17.3566 50.2525 17.2252 50.4802 17.0443C50.7137 16.8633 50.9063 16.6239 51.0581 16.3262L51.1545 16.1423L51.5135 16.4138L51.4172 16.5977C51.2187 16.9946 50.9531 17.3128 50.6203 17.5522C50.2934 17.7857 49.9372 17.9375 49.5519 18.0075C49.4468 18.3053 49.3097 18.5826 49.1404 18.8395C48.9769 19.0905 48.7872 19.3094 48.5712 19.4962C48.361 19.683 48.1216 19.829 47.8531 19.9341C47.5904 20.0392 47.3043 20.0917 46.9949 20.0917C46.557 20.0917 46.1542 19.9983 45.7864 19.8115C45.4245 19.6247 45.1092 19.3211 44.8407 18.9008C44.578 18.4804 44.3707 17.9287 44.2189 17.2457C44.073 16.5568 44 15.7132 44 14.7149C44 13.3255 44.0642 12.1433 44.1927 11.1683C44.3211 10.1875 44.4904 9.39066 44.7006 8.77767C44.9107 8.15884 45.153 7.70932 45.4274 7.42909C45.7018 7.14303 45.9849 7 46.2768 7C46.4578 7 46.6067 7.07297 46.7234 7.21892C46.8402 7.35904 46.8986 7.61591 46.8986 7.98954C46.8986 8.28144 46.8752 8.61421 46.8285 8.98784C46.7818 9.36147 46.7205 9.76137 46.6446 10.1875C46.5687 10.6137 46.4782 11.0574 46.3731 11.5186C46.2681 11.974 46.1571 12.4293 46.0404 12.8847C45.9236 13.3342 45.8039 13.7779 45.6813 14.2158C45.5587 14.6478 45.4391 15.0535 45.3223 15.433ZM46.7935 14.9076C46.7935 15.252 46.8402 15.5702 46.9336 15.8621C47.0328 16.1481 47.1642 16.4021 47.3277 16.6239C47.4911 16.8399 47.6809 17.0209 47.8969 17.1669C48.1129 17.3128 48.3435 17.415 48.5887 17.4734C48.6179 17.3099 48.6354 17.1406 48.6412 16.9655C48.6529 16.7845 48.6587 16.6006 48.6587 16.4138C48.6587 15.9993 48.6266 15.6256 48.5624 15.2929C48.4982 14.9543 48.4135 14.6682 48.3084 14.4347C48.2034 14.1953 48.0808 14.0114 47.9406 13.883C47.8005 13.7546 47.6575 13.6903 47.5116 13.6903C47.3131 13.6903 47.1438 13.7983 47.0036 14.0144C46.8635 14.2245 46.7935 14.5223 46.7935 14.9076ZM46.3294 8.19971C46.3294 8.07711 46.3148 7.98078 46.2856 7.91073C46.2564 7.84067 46.2097 7.80564 46.1455 7.80564C46.0812 7.80564 46.017 7.89613 45.9528 8.07711C45.8886 8.25809 45.8244 8.50328 45.7602 8.8127C45.7018 9.12211 45.6463 9.48115 45.5938 9.88981C45.5471 10.2985 45.5033 10.7334 45.4624 11.1946C45.4216 11.65 45.3894 12.117 45.3661 12.5957C45.3427 13.0744 45.3281 13.5356 45.3223 13.9793C45.4624 13.4656 45.5938 12.9402 45.7164 12.4031C45.839 11.8601 45.9441 11.3347 46.0316 10.8268C46.125 10.3189 46.198 9.84018 46.2505 9.39066C46.3031 8.9353 46.3294 8.53831 46.3294 8.19971Z" fill="#F11967"/>
<path d="M53.7465 19.1022C53.9509 19.1022 54.1581 19.0496 54.3683 18.9445C54.5843 18.8395 54.8003 18.676 55.0163 18.4541C55.2381 18.2323 55.4658 17.9462 55.6993 17.596C55.9329 17.2398 55.8307 16.8516 54.9112 16.7959H54.5668L54.4617 16.4138H54.6368C56.8786 16.3554 56.075 17.8499 55.8307 18.2002C55.5213 18.6439 55.2148 19.0058 54.9112 19.2861C54.6135 19.5663 54.3187 19.7706 54.0268 19.8991C53.7349 20.0275 53.4546 20.0917 53.1861 20.0917C52.8066 20.0917 52.468 20.0129 52.1703 19.8553C51.8725 19.6976 51.6215 19.4846 51.4172 19.216C51.2128 18.9416 51.0581 18.6264 50.9531 18.2703C50.8421 17.9083 50.7867 17.5288 50.7867 17.1318C50.7867 16.5013 50.8742 15.9292 51.0494 15.4155C51.2187 14.8959 51.4464 14.4522 51.7324 14.0844C52.0243 13.7166 52.3542 13.4306 52.722 13.2262C53.0898 13.0219 53.4721 12.9197 53.8691 12.9197C54.272 12.9197 54.5784 13.0219 54.7886 13.2262C55.0046 13.4306 55.1126 13.6874 55.1126 13.9968C55.1126 14.2946 55.028 14.5748 54.8587 14.8375C54.6894 15.0944 54.4588 15.3483 54.1669 15.5994C53.8808 15.8446 53.548 16.0898 53.1686 16.335C52.7891 16.5743 52.3892 16.8224 51.9689 17.0793C52.0097 17.3829 52.0798 17.6602 52.179 17.9112C52.2783 18.1564 52.4038 18.3695 52.5556 18.5505C52.7074 18.7256 52.8825 18.8628 53.081 18.9621C53.2795 19.0555 53.5013 19.1022 53.7465 19.1022ZM54.018 14.2595C54.018 14.026 53.9538 13.8421 53.8253 13.7079C53.7027 13.5736 53.551 13.5064 53.37 13.5064C53.2182 13.5064 53.0577 13.5619 52.8883 13.6728C52.719 13.7779 52.5643 13.9501 52.4242 14.1895C52.2841 14.423 52.1674 14.7237 52.0739 15.0915C51.9805 15.4593 51.9338 15.9059 51.9338 16.4313V16.6327C52.1323 16.5276 52.3513 16.3904 52.5906 16.2211C52.8358 16.046 53.0635 15.8533 53.2737 15.6432C53.4838 15.433 53.659 15.2111 53.7991 14.9776C53.945 14.7383 54.018 14.4989 54.018 14.2595Z" fill="#F11967"/>
<mask id="mask0" mask-type="alpha" maskUnits="userSpaceOnUse" x="4" y="4" width="32" height="32">
<rect x="4" y="4" width="32" height="32" rx="16" fill="#F8F8F8"/>
</mask>
<g mask="url(#mask0)">
<rect x="4" y="4" width="32" height="32" rx="16" fill="#F8F8F8"/>
<rect opacity="0.4" x="10" y="10" width="20" height="20" rx="10" fill="#C5D7E3"/>
<g filter="url(#filter0_d)">
<path d="M16.5 10.5V10.5C25.7317 6.89388 33.9236 17.6221 28.0134 25.5781L22.5 33" stroke="#FEFEFE"/>
</g>
<path d="M18.5 38.5L27.7731 25.7691C33.6827 17.6559 25.3493 6.84792 16 10.5V10.5" stroke="#FEFEFE"/>
<path d="M8.5 34L22.5858 19.9142C23.3668 19.1332 23.3668 17.8668 22.5858 17.0858L8 2.5" stroke="#FEFEFE"/>
<path d="M14 28.5L12.9636 27.4636C8.9084 23.4084 9.0874 16.7805 13.3556 12.9501L25 2.5" stroke="#FEFEFE"/>
<path d="M22.5 17L36.5 31" stroke="#FEFEFE"/>
<rect x="12" y="26" width="4" height="4" rx="2" fill="#F11967"/>
<rect x="14" y="9" width="4" height="4" rx="2" fill="#40A3EA"/>
<rect x="22" y="17" width="4" height="4" rx="2" fill="#F5A130"/>
</g>
<defs>
<filter id="filter0_d" x="12.3181" y="6.27887" width="22.1979" height="32.0193" filterUnits="userSpaceOnUse" color-interpolation-filters="sRGB">
<feFlood flood-opacity="0" result="BackgroundImageFix"/>
<feColorMatrix in="SourceAlpha" type="matrix" values="0 0 0 0 0 0 0 0 0 0 0 0 0 0 0 0 0 0 127 0" result="hardAlpha"/>
<feOffset dy="1"/>
<feGaussianBlur stdDeviation="2"/>
<feColorMatrix type="matrix" values="0 0 0 0 0.699219 0 0 0 0 0.726411 0 0 0 0 0.745833 0 0 0 0.24 0"/>
<feBlend mode="normal" in2="BackgroundImageFix" result="effect1_dropShadow"/>
<feBlend mode="normal" in="SourceGraphic" in2="effect1_dropShadow" result="shape"/>
</filter>
</defs>
</svg>
